Morphologic.ufo
<glyph name="exclam" format="1">
  <advance width="500"/>
  <unicode hex="0021"/>
  <outline>
    <contour>
      <point x="160" y="750" type="line"/>
      <point x="340" y="750" type="line"/>
      <point x="260" y="175" type="line"/>
      <point x="235" y="175" type="line"/>
    </contour>
    <contour>
      <point x="210" y="125" type="line"/>
      <point x="290" y="125" type="line"/>
      <point x="310" y="90" type="line"/>
      <point x="310" y="40" type="line"/>
      <point x="290" y="0" type="line"/>
      <point x="210" y="0" type="line"/>
      <point x="190" y="40" type="line"/>
      <point x="190" y="90" type="line"/>
    </contour>
  </outline>
</glyph>
<glyph name="B" format="1">
  <advance width="800"/>
  <outline>
    <contour>
      <point x="200" y="600" type="line"/>
      <point x="600" y="650" type="line"/>
      <point x="600" y="400" type="line"/>
      <point x="400" y="300" type="line"/>
      <point x="600" y="250" type="line"/>
      <point x="600" y="0" type="line"/>
      <point x="200" y="0" type="line"/>
    </contour>
    <contour>
      <point x="300" y="550" type="line"/>
      <point x="300" y="400" type="line"/>
      <point x="450" y="400" type="line"/>
      <point x="450" y="550" type="line"/>
    </contour>
    <contour>
      <point x="300" y="200" type="line"/>
      <point x="300" y="50" type="line"/>
      <point x="450" y="50" type="line"/>
      <point x="450" y="200" type="line"/>
    </contour>
  </outline>
</glyph>
<glyph name="ampersand" format="1">
  <advance width="750"/>
  <outline>
    <contour>
      <point x="225" y="0" type="line"/>
      <point x="175" y="50" type="line"/>
      <point x="125" y="150" type="line"/>
      <point x="225" y="300" type="line"/>
      <point x="175" y="400" type="line"/>
      <point x="275" y="550" type="line"/>
      <point x="425" y="525" type="line"/>
      <point x="475" y="375" type="line"/>
      <point x="350" y="225" type="line"/>
      <point x="425" y="150" type="line"/>
      <point x="525" y="225" type="line"/>
      <point x="500" y="250" type="line"/>
      <point x="500" y="275" type="line"/>
      <point x="625" y="275" type="line"/>
      <point x="625" y="250" type="line"/>
      <point x="550" y="200" type="line"/>
      <point x="525" y="175" type="line"/>
      <point x="425" y="100" type="line"/>
      <point x="475" y="50" type="line"/>
      <point x="550" y="25" type="line"/>
      <point x="550" y="0" type="line"/>
      <point x="450" y="0" type="line"/>
      <point x="400" y="50" type="line"/>
      <point x="375" y="0" type="line"/>
    </contour>
    <contour>
      <point x="375" y="500" type="line"/>
      <point x="275" y="500" type="line"/>
      <point x="230" y="450" type="line"/>
      <point x="275" y="325" type="line"/>
      <point x="350" y="300" type="line"/>
      <point x="425" y="375" type="line"/>
    </contour>
    <contour>
      <point x="275" y="250" type="line"/>
      <point x="175" y="150" type="line"/>
      <point x="225" y="75" type="line"/>
      <point x="325" y="50" type="line"/>
      <point x="375" y="75" type="line"/>
      <point x="325" y="225" type="line"/>
    </contour>
  </outline>
</glyph>
<glyph name="c" format="1">
  <advance width="750"/>
  <outline>
    <contour>
      <point x="150" y="500" type="line"/>
      <point x="600" y="500" type="line"/>
      <point x="600" y="400" type="line"/>
      <point x="250" y="400" type="line"/>
      <point x="250" y="100" type="line"/>
      <point x="600" y="100" type="line"/>
      <point x="600" y="0" type="line"/>
      <point x="150" y="0" type="line"/>
    </contour>
  </outline>
</glyph>
<glyph name="d" format="1">
  <advance width="625"/>
  <outline>
    <contour>
      <point x="0" y="0" type="line"/>
      <point x="100" y="300" type="line"/>
      <point x="325" y="300" type="line"/>
      <point x="375" y="250" type="line"/>
      <point x="350" y="175" type="line"/>
      <point x="300" y="225" type="line"/>
      <point x="175" y="225" type="line"/>
      <point x="125" y="75" type="line"/>
      <point x="350" y="75" type="line"/>
      <point x="550" y="675" type="line"/>
      <point x="625" y="600" type="line"/>
      <point x="425" y="0" type="line"/>
    </contour>
  </outline>
</glyph>
<glyph name="e" format="1">
  <advance width="650"/>
  <outline>
    <contour>
      <point x="100" y="550" type="line"/>
      <point x="550" y="550" type="line"/>
      <point x="550" y="250" type="line"/>
      <point x="150" y="250" type="line"/>
      <point x="150" y="50" type="line"/>
      <point x="550" y="50" type="line"/>
      <point x="550" y="0" type="line"/>
      <point x="100" y="0" type="line"/>
    </contour>
    <contour>
      <point x="150" y="500" type="line"/>
      <point x="150" y="300" type="line"/>
      <point x="500" y="300" type="line"/>
      <point x="500" y="500" type="line"/>
    </contour>
  </outline>
</glyph>
<glyph name="f" format="1">
  <advance width="650"/>
  <outline>
    <contour>
      <point x="300" y="0" type="line"/>
      <point x="375" y="125" type="line"/>
      <point x="400" y="725" type="line"/>
      <point x="450" y="700" type="line"/>
      <point x="425" y="675" type="line"/>
      <point x="425" y="650" type="line"/>
      <point x="450" y="625" type="line"/>
      <point x="475" y="625" type="line"/>
      <point x="500" y="650" type="line"/>
      <point x="500" y="700" type="line"/>
      <point x="475" y="725" type="line"/>
      <point x="400" y="750" type="line"/>
      <point x="300" y="575" type="line"/>
      <point x="275" y="25" type="line"/>
      <point x="250" y="100" type="line"/>
      <point x="175" y="125" type="line"/>
      <point x="150" y="75" type="line"/>
      <point x="225" y="0" type="line"/>
    </contour>
    <contour>
      <point x="250" y="450" type="line"/>
      <point x="300" y="425" type="line"/>
      <point x="475" y="450" type="line"/>
    </contour>
  </outline>
</glyph>
<glyph name="g" format="1">
  <advance width="750"/>
  <outline>
    <contour>
      <point x="225" y="0" type="line"/>
      <point x="100" y="125" type="line"/>
      <point x="100" y="375" type="line"/>
      <point x="225" y="500" type="line"/>
      <point x="375" y="500" type="line"/>
      <point x="500" y="375" type="line"/>
      <point x="500" y="500" type="line"/>
      <point x="650" y="500" type="line"/>
      <point x="650" y="400" type="line"/>
      <point x="600" y="400" type="line"/>
      <point x="600" y="-50" type="line"/>
      <point x="225" y="-150" type="line"/>
      <point x="225" y="-175" type="line"/>
      <point x="550" y="-175" type="line"/>
      <point x="650" y="-75" type="line"/>
      <point x="650" y="-150" type="line"/>
      <point x="550" y="-250" type="line"/>
      <point x="125" y="-250" type="line"/>
      <point x="125" y="-100" type="line"/>
      <point x="500" y="0" type="line"/>
      <point x="500" y="125" type="line"/>
      <point x="375" y="0" type="line"/>
    </contour>
    <contour>
      <point x="275" y="100" type="line"/>
      <point x="325" y="100" type="line"/>
      <point x="400" y="175" type="line"/>
      <point x="400" y="325" type="line"/>
      <point x="325" y="400" type="line"/>
      <point x="275" y="400" type="line"/>
      <point x="200" y="325" type="line"/>
      <point x="200" y="175" type="line"/>
    </contour>
  </outline>
</glyph>
<glyph name="h" format="1">
  <advance width="700"/>
  <outline>
    <contour>
      <point x="200" y="0" type="line"/>
      <point x="200" y="700" type="line"/>
      <point x="150" y="700" type="line"/>
      <point x="100" y="750" type="line"/>
      <point x="300" y="750" type="line"/>
      <point x="300" y="500" type="line"/>
      <point x="500" y="500" type="line"/>
      <point x="600" y="400" type="line"/>
      <point x="600" y="0" type="line"/>
      <point x="500" y="0" type="line"/>
      <point x="500" y="350" type="line"/>
      <point x="450" y="400" type="line"/>
      <point x="300" y="400" type="line"/>
      <point x="300" y="0" type="line"/>
    </contour>
  </outline>
</glyph>
<glyph name="i" format="1">
  <advance width="300"/>
  <outline>
    <contour>
      <point x="100" y="575" type="line"/>
      <point x="200" y="575" type="line"/>
      <point x="100" y="475" type="line"/>
    </contour>
    <contour>
      <point x="100" y="400" type="line"/>
      <point x="200" y="500" type="line"/>
      <point x="200" y="0" type="line"/>
      <point x="100" y="-100" type="line"/>
    </contour>
  </outline>
</glyph>
<glyph name="j" format="1">
  <advance width="225"/>
  <outline>
    <contour>
      <point x="125" y="550" type="line"/>
      <point x="200" y="550" type="line"/>
      <point x="200" y="525" type="line"/>
      <point x="125" y="450" type="line"/>
    </contour>
    <contour>
      <point x="200" y="500" type="line"/>
      <point x="200" y="-150" type="line"/>
      <point x="150" y="-200" type="line"/>
      <point x="25" y="-200" type="line"/>
      <point x="100" y="-125" type="line"/>
      <point x="125" y="-125" type="line"/>
      <point x="125" y="425" type="line"/>
    </contour>
  </outline>
</glyph>
<glyph name="n" format="1">
  <advance width="925"/>
  <outline>
    <contour>
      <point x="250" y="500" type="line"/>
      <point x="325" y="500" type="line"/>
      <point x="325" y="475" type="line"/>
      <point x="600" y="475" type="line"/>
      <point x="650" y="450" type="line"/>
      <point x="675" y="400" type="line"/>
      <point x="675" y="25" type="line"/>
      <point x="750" y="0" type="line"/>
      <point x="525" y="0" type="line"/>
      <point x="600" y="25" type="line"/>
      <point x="600" y="375" type="line"/>
      <point x="575" y="425" type="line"/>
      <point x="525" y="450" type="line"/>
      <point x="325" y="450" type="line"/>
      <point x="325" y="25" type="line"/>
      <point x="400" y="0" type="line"/>
      <point x="175" y="0" type="line"/>
      <point x="250" y="25" type="line"/>
      <point x="250" y="400" type="line"/>
      <point x="175" y="425" type="line"/>
    </contour>
    <contour>
      <point x="250" y="500" type="line"/>
      <point x="325" y="500" type="line"/>
      <point x="325" y="475" type="line"/>
      <point x="600" y="475" type="line"/>
      <point x="650" y="450" type="line"/>
      <point x="675" y="400" type="line"/>
      <point x="675" y="25" type="line"/>
      <point x="750" y="0" type="line"/>
      <point x="525" y="0" type="line"/>
      <point x="600" y="25" type="line"/>
      <point x="600" y="375" type="line"/>
      <point x="575" y="425" type="line"/>
      <point x="525" y="450" type="line"/>
      <point x="325" y="450" type="line"/>
      <point x="325" y="25" type="line"/>
      <point x="400" y="0" type="line"/>
      <point x="175" y="0" type="line"/>
      <point x="250" y="25" type="line"/>
      <point x="250" y="400" type="line"/>
      <point x="175" y="425" type="line"/>
    </contour>
    <contour>
      <point x="250" y="500" type="line"/>
      <point x="325" y="500" type="line"/>
      <point x="325" y="475" type="line"/>
      <point x="600" y="475" type="line"/>
      <point x="650" y="450" type="line"/>
      <point x="675" y="400" type="line"/>
      <point x="675" y="25" type="line"/>
      <point x="750" y="0" type="line"/>
      <point x="525" y="0" type="line"/>
      <point x="600" y="25" type="line"/>
      <point x="600" y="375" type="line"/>
      <point x="575" y="425" type="line"/>
      <point x="525" y="450" type="line"/>
      <point x="325" y="450" type="line"/>
      <point x="325" y="25" type="line"/>
      <point x="400" y="0" type="line"/>
      <point x="175" y="0" type="line"/>
      <point x="250" y="25" type="line"/>
      <point x="250" y="400" type="line"/>
      <point x="175" y="425" type="line"/>
    </contour>
    <contour>
      <point x="250" y="500" type="line"/>
      <point x="325" y="500" type="line"/>
      <point x="325" y="475" type="line"/>
      <point x="600" y="475" type="line"/>
      <point x="650" y="450" type="line"/>
      <point x="675" y="400" type="line"/>
      <point x="675" y="25" type="line"/>
      <point x="750" y="0" type="line"/>
      <point x="525" y="0" type="line"/>
      <point x="600" y="25" type="line"/>
      <point x="600" y="375" type="line"/>
      <point x="575" y="425" type="line"/>
      <point x="525" y="450" type="line"/>
      <point x="325" y="450" type="line"/>
      <point x="325" y="25" type="line"/>
      <point x="400" y="0" type="line"/>
      <point x="175" y="0" type="line"/>
      <point x="250" y="25" type="line"/>
      <point x="250" y="400" type="line"/>
      <point x="175" y="425" type="line"/>
    </contour>
    <contour>
      <point x="250" y="500" type="line"/>
      <point x="325" y="500" type="line"/>
      <point x="325" y="475" type="line"/>
      <point x="600" y="475" type="line"/>
      <point x="650" y="450" type="line"/>
      <point x="675" y="400" type="line"/>
      <point x="675" y="25" type="line"/>
      <point x="750" y="0" type="line"/>
      <point x="525" y="0" type="line"/>
      <point x="600" y="25" type="line"/>
      <point x="600" y="375" type="line"/>
      <point x="575" y="425" type="line"/>
      <point x="525" y="450" type="line"/>
      <point x="325" y="450" type="line"/>
      <point x="325" y="25" type="line"/>
      <point x="400" y="0" type="line"/>
      <point x="175" y="0" type="line"/>
      <point x="250" y="25" type="line"/>
      <point x="250" y="400" type="line"/>
      <point x="175" y="425" type="line"/>
    </contour>
    <contour>
      <point x="250" y="500" type="line"/>
      <point x="325" y="500" type="line"/>
      <point x="325" y="475" type="line"/>
      <point x="600" y="475" type="line"/>
      <point x="650" y="450" type="line"/>
      <point x="675" y="400" type="line"/>
      <point x="675" y="25" type="line"/>
      <point x="750" y="0" type="line"/>
      <point x="525" y="0" type="line"/>
      <point x="600" y="25" type="line"/>
      <point x="600" y="375" type="line"/>
      <point x="575" y="425" type="line"/>
      <point x="525" y="450" type="line"/>
      <point x="325" y="450" type="line"/>
      <point x="325" y="25" type="line"/>
      <point x="400" y="0" type="line"/>
      <point x="175" y="0" type="line"/>
      <point x="250" y="25" type="line"/>
      <point x="250" y="400" type="line"/>
      <point x="175" y="425" type="line"/>
    </contour>
  </outline>
</glyph>
<glyph name="o" format="1">
  <advance width="450"/>
  <outline>
    <contour>
      <point x="125" y="0" type="line"/>
      <point x="50" y="100" type="line"/>
      <point x="50" y="400" type="line"/>
      <point x="125" y="500" type="line"/>
      <point x="325" y="500" type="line"/>
      <point x="400" y="400" type="line"/>
      <point x="400" y="100" type="line"/>
      <point x="325" y="0" type="line"/>
    </contour>
    <contour>
      <point x="162" y="12" type="line"/>
      <point x="288" y="12" type="line"/>
      <point x="350" y="88" type="line"/>
      <point x="350" y="412" type="line"/>
      <point x="288" y="488" type="line"/>
      <point x="162" y="488" type="line"/>
      <point x="100" y="412" type="line"/>
      <point x="100" y="88" type="line"/>
    </contour>
  </outline>
</glyph>
<glyph name="p" format="1">
  <advance width="625"/>
  <outline>
    <contour>
      <point x="125" y="-250" type="line"/>
      <point x="125" y="425" type="line"/>
      <point x="150" y="475" type="line"/>
      <point x="175" y="500" type="line"/>
      <point x="450" y="500" type="line"/>
      <point x="475" y="475" type="line"/>
      <point x="500" y="425" type="line"/>
      <point x="500" y="275" type="line"/>
      <point x="475" y="225" type="line"/>
      <point x="450" y="200" type="line"/>
      <point x="250" y="200" type="line"/>
      <point x="250" y="275" type="line"/>
      <point x="450" y="275" type="line"/>
      <point x="450" y="425" type="line"/>
      <point x="200" y="425" type="line"/>
      <point x="200" y="-250" type="line"/>
    </contour>
  </outline>
</glyph>
<glyph name="q" format="1">
  <advance width="650"/>
  <outline>
    <contour>
      <point x="400" y="125" type="line"/>
      <point x="175" y="125" type="line"/>
      <point x="75" y="225" type="line"/>
      <point x="75" y="375" type="line"/>
      <point x="175" y="475" type="line"/>
      <point x="400" y="475" type="line"/>
      <point x="500" y="375" type="line"/>
      <point x="500" y="225" type="line"/>
    </contour>
    <contour>
      <point x="175" y="175" type="line"/>
      <point x="400" y="175" type="line"/>
      <point x="450" y="225" type="line"/>
      <point x="450" y="375" type="line"/>
      <point x="400" y="425" type="line"/>
      <point x="175" y="425" type="line"/>
      <point x="125" y="375" type="line"/>
      <point x="125" y="225" type="line"/>
    </contour>
    <contour>
      <point x="500" y="225" type="line"/>
      <point x="500" y="125" type="line"/>
      <point x="575" y="125" type="line"/>
      <point x="575" y="25" type="line"/>
      <point x="500" y="25" type="line"/>
      <point x="500" y="-250" type="line"/>
      <point x="450" y="-250" type="line"/>
      <point x="450" y="25" type="line"/>
      <point x="375" y="25" type="line"/>
      <point x="375" y="75" type="line"/>
      <point x="450" y="75" type="line"/>
      <point x="450" y="175" type="line"/>
    </contour>
    <contour>
      <point x="400" y="125" type="line"/>
      <point x="175" y="125" type="line"/>
      <point x="75" y="225" type="line"/>
      <point x="75" y="375" type="line"/>
      <point x="175" y="475" type="line"/>
      <point x="400" y="475" type="line"/>
      <point x="500" y="375" type="line"/>
      <point x="500" y="225" type="line"/>
    </contour>
    <contour>
      <point x="175" y="175" type="line"/>
      <point x="400" y="175" type="line"/>
      <point x="450" y="225" type="line"/>
      <point x="450" y="375" type="line"/>
      <point x="400" y="425" type="line"/>
      <point x="175" y="425" type="line"/>
      <point x="125" y="375" type="line"/>
      <point x="125" y="225" type="line"/>
    </contour>
    <contour>
      <point x="500" y="225" type="line"/>
      <point x="500" y="125" type="line"/>
      <point x="575" y="125" type="line"/>
      <point x="575" y="25" type="line"/>
      <point x="500" y="25" type="line"/>
      <point x="500" y="-250" type="line"/>
      <point x="450" y="-250" type="line"/>
      <point x="450" y="25" type="line"/>
      <point x="375" y="25" type="line"/>
      <point x="375" y="75" type="line"/>
      <point x="450" y="75" type="line"/>
      <point x="450" y="175" type="line"/>
    </contour>
    <contour>
      <point x="400" y="125" type="line"/>
      <point x="175" y="125" type="line"/>
      <point x="75" y="225" type="line"/>
      <point x="75" y="375" type="line"/>
      <point x="175" y="475" type="line"/>
      <point x="400" y="475" type="line"/>
      <point x="500" y="375" type="line"/>
      <point x="500" y="225" type="line"/>
    </contour>
    <contour>
      <point x="175" y="175" type="line"/>
      <point x="400" y="175" type="line"/>
      <point x="450" y="225" type="line"/>
      <point x="450" y="375" type="line"/>
      <point x="400" y="425" type="line"/>
      <point x="175" y="425" type="line"/>
      <point x="125" y="375" type="line"/>
      <point x="125" y="225" type="line"/>
    </contour>
    <contour>
      <point x="500" y="225" type="line"/>
      <point x="500" y="125" type="line"/>
      <point x="575" y="125" type="line"/>
      <point x="575" y="25" type="line"/>
      <point x="500" y="25" type="line"/>
      <point x="500" y="-250" type="line"/>
      <point x="450" y="-250" type="line"/>
      <point x="450" y="25" type="line"/>
      <point x="375" y="25" type="line"/>
      <point x="375" y="75" type="line"/>
      <point x="450" y="75" type="line"/>
      <point x="450" y="175" type="line"/>
    </contour>
    <contour>
      <point x="400" y="125" type="line"/>
      <point x="175" y="125" type="line"/>
      <point x="75" y="225" type="line"/>
      <point x="75" y="375" type="line"/>
      <point x="175" y="475" type="line"/>
      <point x="400" y="475" type="line"/>
      <point x="500" y="375" type="line"/>
      <point x="500" y="225" type="line"/>
    </contour>
    <contour>
      <point x="175" y="175" type="line"/>
      <point x="400" y="175" type="line"/>
      <point x="450" y="225" type="line"/>
      <point x="450" y="375" type="line"/>
      <point x="400" y="425" type="line"/>
      <point x="175" y="425" type="line"/>
      <point x="125" y="375" type="line"/>
      <point x="125" y="225" type="line"/>
    </contour>
    <contour>
      <point x="500" y="225" type="line"/>
      <point x="500" y="125" type="line"/>
      <point x="575" y="125" type="line"/>
      <point x="575" y="25" type="line"/>
      <point x="500" y="25" type="line"/>
      <point x="500" y="-250" type="line"/>
      <point x="450" y="-250" type="line"/>
      <point x="450" y="25" type="line"/>
      <point x="375" y="25" type="line"/>
      <point x="375" y="75" type="line"/>
      <point x="450" y="75" type="line"/>
      <point x="450" y="175" type="line"/>
    </contour>
    <contour>
      <point x="400" y="125" type="line"/>
      <point x="175" y="125" type="line"/>
      <point x="75" y="225" type="line"/>
      <point x="75" y="375" type="line"/>
      <point x="175" y="475" type="line"/>
      <point x="400" y="475" type="line"/>
      <point x="500" y="375" type="line"/>
      <point x="500" y="225" type="line"/>
    </contour>
    <contour>
      <point x="175" y="175" type="line"/>
      <point x="400" y="175" type="line"/>
      <point x="450" y="225" type="line"/>
      <point x="450" y="375" type="line"/>
      <point x="400" y="425" type="line"/>
      <point x="175" y="425" type="line"/>
      <point x="125" y="375" type="line"/>
      <point x="125" y="225" type="line"/>
    </contour>
    <contour>
      <point x="500" y="225" type="line"/>
      <point x="500" y="125" type="line"/>
      <point x="575" y="125" type="line"/>
      <point x="575" y="25" type="line"/>
      <point x="500" y="25" type="line"/>
      <point x="500" y="-250" type="line"/>
      <point x="450" y="-250" type="line"/>
      <point x="450" y="25" type="line"/>
      <point x="375" y="25" type="line"/>
      <point x="375" y="75" type="line"/>
      <point x="450" y="75" type="line"/>
      <point x="450" y="175" type="line"/>
    </contour>
    <contour>
      <point x="400" y="125" type="line"/>
      <point x="175" y="125" type="line"/>
      <point x="75" y="225" type="line"/>
      <point x="75" y="375" type="line"/>
      <point x="175" y="475" type="line"/>
      <point x="400" y="475" type="line"/>
      <point x="500" y="375" type="line"/>
      <point x="500" y="225" type="line"/>
    </contour>
    <contour>
      <point x="175" y="175" type="line"/>
      <point x="400" y="175" type="line"/>
      <point x="450" y="225" type="line"/>
      <point x="450" y="375" type="line"/>
      <point x="400" y="425" type="line"/>
      <point x="175" y="425" type="line"/>
      <point x="125" y="375" type="line"/>
      <point x="125" y="225" type="line"/>
    </contour>
    <contour>
      <point x="500" y="225" type="line"/>
      <point x="500" y="125" type="line"/>
      <point x="575" y="125" type="line"/>
      <point x="575" y="25" type="line"/>
      <point x="500" y="25" type="line"/>
      <point x="500" y="-250" type="line"/>
      <point x="450" y="-250" type="line"/>
      <point x="450" y="25" type="line"/>
      <point x="375" y="25" type="line"/>
      <point x="375" y="75" type="line"/>
      <point x="450" y="75" type="line"/>
      <point x="450" y="175" type="line"/>
    </contour>
  </outline>
</glyph>
<glyph name="question" format="1">
  <advance width="525"/>
  <outline>
    <contour>
      <point x="250" y="0" type="line"/>
      <point x="250" y="21" type="line"/>
      <point x="275" y="21" type="line"/>
      <point x="275" y="0" type="line"/>
    </contour>
    <contour>
      <point x="250" y="40" type="line"/>
      <point x="275" y="40" type="line"/>
      <point x="275" y="61" type="line"/>
      <point x="300" y="61" type="line"/>
      <point x="300" y="100" type="line"/>
      <point x="325" y="100" type="line"/>
      <point x="325" y="150" type="line"/>
      <point x="300" y="150" type="line"/>
      <point x="300" y="150" type="line"/>
      <point x="300" y="175" type="line"/>
      <point x="225" y="175" type="line"/>
      <point x="225" y="150" type="line"/>
      <point x="200" y="150" type="line"/>
      <point x="200" y="125" type="line"/>
      <point x="225" y="125" type="line"/>
      <point x="225" y="150" type="line"/>
      <point x="300" y="150" type="line"/>
      <point x="300" y="100" type="line"/>
      <point x="275" y="100" type="line"/>
      <point x="275" y="61" type="line"/>
      <point x="250" y="61" type="line"/>
    </contour>
  </outline>
</glyph>
<glyph name="r" format="1">
  <advance width="700"/>
  <outline>
    <contour>
      <point x="125" y="0" type="line"/>
      <point x="200" y="0" type="line"/>
      <point x="250" y="225" type="line"/>
      <point x="325" y="0" type="line"/>
      <point x="400" y="0" type="line"/>
      <point x="260" y="300" type="line"/>
      <point x="275" y="350" type="line"/>
      <point x="600" y="350" type="line"/>
      <point x="600" y="450" type="line"/>
      <point x="400" y="575" type="line"/>
      <point x="275" y="575" type="line"/>
      <point x="100" y="450" type="line"/>
      <point x="100" y="275" type="line"/>
      <point x="150" y="275" type="line"/>
      <point x="150" y="375" type="line"/>
      <point x="200" y="375" type="line"/>
    </contour>
    <contour>
      <point x="425" y="325" type="line"/>
      <point x="275" y="325" type="line"/>
      <point x="275" y="500" type="line"/>
      <point x="425" y="500" type="line"/>
    </contour>
  </outline>
</glyph>
<glyph name="t" format="1">
  <advance width="600"/>
  <outline>
    <contour>
      <point x="375" y="0" type="line"/>
      <point x="250" y="0" type="line"/>
      <point x="175" y="250" type="line"/>
      <point x="175" y="475" type="line"/>
      <point x="100" y="475" type="line"/>
      <point x="100" y="525" type="line"/>
      <point x="175" y="525" type="line"/>
      <point x="175" y="750" type="line"/>
      <point x="250" y="750" type="line"/>
      <point x="250" y="525" type="line"/>
      <point x="425" y="525" type="line"/>
      <point x="425" y="475" type="line"/>
      <point x="250" y="475" type="line"/>
      <point x="250" y="250" type="line"/>
      <point x="275" y="75" type="line"/>
      <point x="375" y="75" type="line"/>
      <point x="450" y="175" type="line"/>
      <point x="500" y="175" type="line"/>
    </contour>
  </outline>
</glyph>
<glyph name="v" format="1">
  <advance width="750"/>
  <outline>
    <contour>
      <point x="0" y="500" type="line"/>
      <point x="150" y="500" type="line"/>
      <point x="375" y="200" type="line"/>
      <point x="600" y="500" type="line"/>
      <point x="750" y="500" type="line"/>
      <point x="375" y="0" type="line"/>
    </contour>
  </outline>
</glyph>
<glyph name="w" format="1">
  <advance width="805"/>
  <outline>
    <contour>
      <point x="175" y="400" type="line"/>
      <point x="250" y="0" type="line"/>
      <point x="350" y="530" type="line"/>
      <point x="475" y="-150" type="line"/>
      <point x="630" y="750" type="line"/>
      <point x="590" y="750" type="line"/>
      <point x="475" y="-100" type="line"/>
      <point x="350" y="582" type="line"/>
      <point x="250" y="55" type="line"/>
      <point x="210" y="400" type="line"/>
    </contour>
  </outline>
</glyph>
<glyph name="x" format="1">
  <advance width="600"/>
  <outline>
    <contour>
      <point x="100" y="-50" type="line"/>
      <point x="150" y="-50" type="line"/>
      <point x="500" y="500" type="line"/>
    </contour>
    <contour>
      <point x="150" y="500" type="line"/>
      <point x="200" y="500" type="line"/>
      <point x="500" y="0" type="line"/>
    </contour>
  </outline>
</glyph>
<glyph name="y" format="1">
  <advance width="950"/>
  <outline>
    <contour>
      <point x="0" y="500" type="line"/>
      <point x="150" y="500" type="line"/>
      <point x="475" y="35" type="line"/>
      <point x="715" y="375" type="line"/>
      <point x="600" y="375" type="line"/>
      <point x="600" y="500" type="line"/>
      <point x="950" y="500" type="line"/>
      <point x="285" y="-450" type="line"/>
      <point x="100" y="-450" type="line"/>
      <point x="100" y="-300" type="line"/>
      <point x="240" y="-300" type="line"/>
      <point x="400" y="-71" type="line"/>
    </contour>
  </outline>
</glyph>
<glyph name="z" format="1">
  <advance width="900"/>
  <outline>
    <contour>
      <point x="200" y="500" type="line"/>
      <point x="200" y="400" type="line"/>
      <point x="700" y="400" type="line"/>
      <point x="700" y="500" type="line"/>
    </contour>
    <contour>
      <point x="675" y="375" type="line"/>
      <point x="225" y="125" type="line"/>
    </contour>
    <contour>
      <point x="200" y="100" type="line"/>
      <point x="200" y="0" type="line"/>
      <point x="700" y="0" type="line"/>
      <point x="700" y="100" type="line"/>
    </contour>
    <contour>
      <point x="200" y="500" type="line"/>
      <point x="200" y="400" type="line"/>
      <point x="700" y="400" type="line"/>
      <point x="700" y="500" type="line"/>
    </contour>
    <contour>
      <point x="675" y="375" type="line"/>
      <point x="225" y="125" type="line"/>
    </contour>
    <contour>
      <point x="200" y="100" type="line"/>
      <point x="200" y="0" type="line"/>
      <point x="700" y="0" type="line"/>
      <point x="700" y="100" type="line"/>
    </contour>
    <contour>
      <point x="200" y="500" type="line"/>
      <point x="200" y="400" type="line"/>
      <point x="700" y="400" type="line"/>
      <point x="700" y="500" type="line"/>
    </contour>
    <contour>
      <point x="675" y="375" type="line"/>
      <point x="225" y="125" type="line"/>
    </contour>
    <contour>
      <point x="200" y="100" type="line"/>
      <point x="200" y="0" type="line"/>
      <point x="700" y="0" type="line"/>
      <point x="700" y="100" type="line"/>
    </contour>
    <contour>
      <point x="200" y="500" type="line"/>
      <point x="200" y="400" type="line"/>
      <point x="700" y="400" type="line"/>
      <point x="700" y="500" type="line"/>
    </contour>
    <contour>
      <point x="675" y="375" type="line"/>
      <point x="225" y="125" type="line"/>
    </contour>
    <contour>
      <point x="200" y="100" type="line"/>
      <point x="200" y="0" type="line"/>
      <point x="700" y="0" type="line"/>
      <point x="700" y="100" type="line"/>
    </contour>
    <contour>
      <point x="200" y="500" type="line"/>
      <point x="200" y="400" type="line"/>
      <point x="700" y="400" type="line"/>
      <point x="700" y="500" type="line"/>
    </contour>
    <contour>
      <point x="675" y="375" type="line"/>
      <point x="225" y="125" type="line"/>
    </contour>
    <contour>
      <point x="200" y="100" type="line"/>
      <point x="200" y="0" type="line"/>
      <point x="700" y="0" type="line"/>
      <point x="700" y="100" type="line"/>
    </contour>
    <contour>
      <point x="200" y="500" type="line"/>
      <point x="200" y="400" type="line"/>
      <point x="700" y="400" type="line"/>
      <point x="700" y="500" type="line"/>
    </contour>
    <contour>
      <point x="675" y="375" type="line"/>
      <point x="225" y="125" type="line"/>
    </contour>
    <contour>
      <point x="200" y="100" type="line"/>
      <point x="200" y="0" type="line"/>
      <point x="700" y="0" type="line"/>
      <point x="700" y="100" type="line"/>
    </contour>
  </outline>
</glyph>
